<svg height="512" width="512" xmlns="http://www.w3.org/2000/svg"><rect id="backgroundrect" width="100%" height="100%" x="0" y="0" fill="none" stroke="none"/><g class="currentLayer" style=""><title>Layer 1</title><path fill="#1aeb1a" fill-opacity="1" stroke="#1aeb1a" stroke-opacity="1" stroke-width="40" stroke-dasharray="none" stroke-linejoin="miter" stroke-linecap="butt" stroke-dashoffset="" fill-rule="nonzero" opacity="1" marker-start="" marker-mid="" marker-end="" d="M259,379 C259,328.72375690607737 299.72375690607737,288 350,288 C400.27624309392263,288 441,328.72375690607737 441,379 C441,429.27624309392263 400.27624309392263,470 350,470 C299.72375690607737,470 259,429.27624309392263 259,379 Z" id="svg_3" class=""/><path d="m30.117188 341c-2.023438 43.558594 22.445312 82.109375 60.019531 99.9375 2.292969 40.742188 35.652343 71.0625 74.863281 71.0625 33.011719 0 62.5-21.347656 71.972656-54.523438 24.648438 33.082032 63.898438 54.523438 108.027344 54.523438 74.4375 0 135-61.007812 135-136 0-34.074219-12.695312-65.230469-33.59375-89.011719 2.375-10.117187 3.59375-20.5 3.59375-30.988281 0-31.070312-10.652344-61.003906-30.117188-85 .074219-1.660156.117188-3.328125.117188-5 0-41.835938-24.5-78.160156-60.179688-94.96875-2.605468-40.78125-35.382812-71.03125-74.820312-71.03125-24.710938 0-46.550781 11.898438-60 30.074219-13.4375-18.160157-35.269531-30.074219-60-30.074219-39.4375 0-72.214844 30.25-74.820312 71.03125-37.003907 17.433594-62.109376 55.941406-60.0625 99.96875-19.464844 23.996094-30.117188 53.929688-30.117188 85s10.652344 61.003906 30.117188 85zm314.882812 141c-57.898438 0-105-47.550781-105-106 0-57.898438 47.101562-105 105-105s105 47.101562 105 105c0 58.449219-47.101562 106-105 106zm-60-452c25.027344 0 45 20.09375 45 46 0 12.019531-4.679688 23.320312-13.179688 31.820312-5.859374 5.859376-5.855468 15.355469 0 21.210938 5.859376 5.859375 15.355469 5.859375 21.210938 0 7.632812-7.628906 13.398438-16.621094 17.109375-26.417969 20.757813 13.148438 34.859375 36.542969 34.859375 63.386719 0 20.035156-7.800781 38.867188-21.96875 53.03125-5.855469 5.859375-5.855469 15.355469 0 21.214844 5.859375 5.859375 15.355469 5.859375 21.214844 0 8.621094-8.621094 15.558594-18.480469 20.648437-29.175782 6.59375 13.925782 10.105469 29.234376 10.105469 44.929688 0 2.550781-.09375 5.09375-.277344 7.625-21.410156-14.285156-47.109375-22.625-74.722656-22.625-42.367188 0-80.230469 19.625-105 50.25v-81.53125c22.515625-3.851562 43.128906-16.222656 57-34.71875 4.972656-6.628906 3.628906-16.027344-3-21-6.625-4.972656-16.027344-3.628906-21 3-8.210938 10.945312-19.964844 18.65625-33 22.050781 0-6.113281 0-96.964843 0-103.050781 0-25.933594 20.003906-46 45-46zm-224.246094 210.246094c5.855469 5.859375 15.355469 5.859375 21.214844 0 5.855469-5.859375 5.855469-15.355469 0-21.214844-14.167969-14.164062-21.96875-33-21.96875-53.03125 0-26.925781 14.171875-50.28125 34.859375-63.386719 3.714844 9.796875 9.476563 18.789063 17.109375 26.417969 5.855469 5.859375 15.351562 5.859375 21.210938 0 5.859374-5.855469 5.859374-15.355469 0-21.210938-8.5-8.5-13.179688-19.800781-13.179688-31.820312 0-25.933594 20.003906-46 45-46 25.027344 0 45 20.09375 45 46v103.050781c-13.035156-3.394531-24.789062-11.105469-33-22.050781-4.96875-6.628906-14.371094-7.972656-21-3s-7.972656 14.371094-3 21c13.871094 18.496094 34.484375 30.867188 57 34.71875v92.5625c-22.515625 3.851562-43.128906 16.222656-57 34.71875-7.503906 10.003906-.152344 24 11.988281 24 4.5625 0 9.066407-2.070312 12.011719-6 8.210938-10.945312 19.964844-18.65625 33-22.050781v103.050781c0 25.933594-20.003906 46-45 46-24.269531 0-45-19.390625-45-45.5 0-12.34375 4.679688-23.820312 13.179688-32.320312 5.859374-5.855469 5.859374-15.355469 0-21.210938-5.855469-5.859375-15.355469-5.859375-21.210938 0-7.59375 7.589844-13.335938 16.582031-17.050781 26.417969-21.015625-13.320313-34.917969-36.605469-34.917969-63.386719 0-20.03125 7.800781-38.867188 21.96875-53.03125 5.855469-5.859375 5.855469-15.355469 0-21.214844-5.859375-5.859375-15.355469-5.859375-21.214844 0-8.621094 8.621094-15.558594 18.480469-20.648437 29.175782-6.59375-13.925782-10.105469-29.234376-10.105469-44.929688s3.511719-31.003906 10.105469-44.929688c5.089843 10.695313 12.027343 20.554688 20.648437 29.175782zm0 0" id="svg_1" class="selected"/></g><defs><filter id="f094" inkscape:label="Glow" xmlns:inkscape="http://www.inkscape.org/namespaces/inkscape" inkscape:menu="Shadows and Glows" inkscape:menu-tooltip="Glow of object's own color at the edges" color-interpolation-filters="sRGB">
            <feGaussianBlur stdDeviation="5" result="result91"/>
            <feComposite in="SourceGraphic" operator="over" in2="result91"/>
        </filter><filter id="f206" inkscape:menu-tooltip="Bright metallic effect for any color" xmlns:inkscape="http://www.inkscape.org/namespaces/inkscape" inkscape:menu="Bevels" inkscape:label="Bright metal" color-interpolation-filters="sRGB">
            <feGaussianBlur result="result6" stdDeviation="8" in="SourceGraphic"/>
            <feComposite in2="SourceGraphic" in="result6" operator="xor" result="result10"/>
            <feGaussianBlur result="result2" stdDeviation="8"/>
            <feComposite in2="SourceGraphic" operator="atop" in="result10" result="result91"/>
            <feComposite result="result4" in="result2" operator="xor" in2="result91"/>
            <feGaussianBlur in="result4" result="result3" stdDeviation="4"/>
            <feSpecularLighting result="result5" specularExponent="5" specularConstant="1.1" surfaceScale="18">
                <feDistantLight azimuth="235" elevation="55"/>
            </feSpecularLighting>
            <feComposite in="result3" k3="1.1" k2=".5" operator="arithmetic" result="result7" in2="result5" k1=".5"/>
            <feComposite in="result7" operator="atop" in2="SourceGraphic" result="result8"/>
        </filter></defs></svg>